<?xml version="1.0" encoding="UTF-8"?>
<svg xmlns="http://www.w3.org/2000/svg" width="24" height="24" viewBox="0 0 24 24" fill="none">
  <path d="M3 3l18 18" stroke="#111827" stroke-width="2" stroke-linecap="round" stroke-linejoin="round"/>
  <path d="M10.58 10.58A2 2 0 0 0 12 14a2 2 0 0 0 1.42-.58" stroke="#111827" stroke-width="2" stroke-linecap="round" stroke-linejoin="round"/>
  <path d="M9.1 5.6A10.9 10.9 0 0 1 12 5c5.5 0 9.5 5 10 7-0.17 0.68-0.73 1.86-1.72 3.12" stroke="#111827" stroke-width="2" stroke-linecap="round" stroke-linejoin="round"/>
  <path d="M6.23 6.23C3.9 7.7 2.35 10.2 2 12c0.5 2 4.5 7 10 7 1.15 0 2.23-.22 3.22-.6" stroke="#111827" stroke-width="2" stroke-linecap="round" stroke-linejoin="round"/>
</svg>


