<svg width="18" height="18" viewBox="0 0 18 18" fill="none" xmlns="http://www.w3.org/2000/svg">
<path d="M9.5625 8.76709L12.3977 11.6023L11.6023 12.3977L8.4375 9.23291L8.4375 4.5H9.5625L9.5625 8.76709Z" fill="#1BAA5E"/>
<path fill-rule="evenodd" clip-rule="evenodd" d="M9 1.5C13.1421 1.5 16.5 4.85786 16.5 9C16.5 13.1421 13.1421 16.5 9 16.5C4.85786 16.5 1.5 13.1421 1.5 9C1.5 4.85786 4.85786 1.5 9 1.5ZM9 2.625C5.47918 2.625 2.625 5.47918 2.625 9C2.625 12.5208 5.47918 15.375 9 15.375C12.5208 15.375 15.375 12.5208 15.375 9C15.375 5.47918 12.5208 2.625 9 2.625Z" fill="#1BAA5E"/>
</svg>
