<svg width="24" height="24" viewBox="0 0 24 24" fill="none" xmlns="http://www.w3.org/2000/svg">
<rect x="2" y="19.5" width="20" height="1.5" fill="#121212"/>
<mask id="path-2-inside-1_179_5013" fill="white">
<path d="M6 4C6 3.17157 6.67157 2.5 7.5 2.5L16.5 2.5C17.3284 2.5 18 3.17157 18 4V5.5C18 6.05228 17.5523 6.5 17 6.5H7C6.44772 6.5 6 6.05228 6 5.5V4Z"/>
</mask>
<path d="M6 4C6 3.17157 6.67157 2.5 7.5 2.5L16.5 2.5C17.3284 2.5 18 3.17157 18 4V5.5C18 6.05228 17.5523 6.5 17 6.5H7C6.44772 6.5 6 6.05228 6 5.5V4Z" stroke="#121212" stroke-width="3" mask="url(#path-2-inside-1_179_5013)"/>
<mask id="path-3-inside-2_179_5013" fill="white">
<rect x="5" y="5" width="14" height="16" rx="1"/>
</mask>
<rect x="5" y="5" width="14" height="16" rx="1" stroke="#121212" stroke-width="3" mask="url(#path-3-inside-2_179_5013)"/>
<mask id="path-4-inside-3_179_5013" fill="white">
<path d="M10 15C10 14.4477 10.4477 14 11 14H13C13.5523 14 14 14.4477 14 15V21H10V15Z"/>
</mask>
<path d="M10 15C10 14.4477 10.4477 14 11 14H13C13.5523 14 14 14.4477 14 15V21H10V15Z" stroke="#121212" stroke-width="3" mask="url(#path-4-inside-3_179_5013)"/>
<path d="M9.4502 11C9.61573 11.0001 9.74989 11.1343 9.75 11.2998V12.2002C9.74989 12.3657 9.61573 12.4999 9.4502 12.5H8.5498C8.38427 12.4999 8.25011 12.3657 8.25 12.2002V11.2998C8.25011 11.1343 8.38427 11.0001 8.5498 11H9.4502Z" fill="#121212"/>
<path d="M12.4502 11C12.6157 11.0001 12.7499 11.1343 12.75 11.2998V12.2002C12.7499 12.3657 12.6157 12.4999 12.4502 12.5H11.5498C11.3843 12.4999 11.2501 12.3657 11.25 12.2002V11.2998C11.2501 11.1343 11.3843 11.0001 11.5498 11H12.4502Z" fill="#121212"/>
<path d="M15.4502 11C15.6157 11.0001 15.7499 11.1343 15.75 11.2998V12.2002C15.7499 12.3657 15.6157 12.4999 15.4502 12.5H14.5498C14.3843 12.4999 14.2501 12.3657 14.25 12.2002V11.2998C14.2501 11.1343 14.3843 11.0001 14.5498 11H15.4502Z" fill="#121212"/>
<path d="M9.4502 8C9.61573 8.00011 9.74989 8.13427 9.75 8.2998V9.2002C9.74989 9.36573 9.61573 9.49989 9.4502 9.5H8.5498C8.38427 9.49989 8.25011 9.36573 8.25 9.2002V8.2998C8.25011 8.13427 8.38427 8.00011 8.5498 8H9.4502Z" fill="#121212"/>
<path d="M12.4502 8C12.6157 8.00011 12.7499 8.13427 12.75 8.2998V9.2002C12.7499 9.36573 12.6157 9.49989 12.4502 9.5H11.5498C11.3843 9.49989 11.2501 9.36573 11.25 9.2002V8.2998C11.2501 8.13427 11.3843 8.00011 11.5498 8H12.4502Z" fill="#121212"/>
<path d="M15.4502 8C15.6157 8.00011 15.7499 8.13427 15.75 8.2998V9.2002C15.7499 9.36573 15.6157 9.49989 15.4502 9.5H14.5498C14.3843 9.49989 14.2501 9.36573 14.25 9.2002V8.2998C14.2501 8.13427 14.3843 8.00011 14.5498 8H15.4502Z" fill="#121212"/>
</svg>
