<svg width="56" height="56" viewBox="0 0 56 56" fill="none" xmlns="http://www.w3.org/2000/svg">
<rect x="36.332" y="20.1597" width="11.2" height="26.1333" rx="2" fill="#FFD6D6"/>
<path d="M39.6035 9.90479C40.7081 9.90479 41.6035 10.8002 41.6035 11.9048V44.0005H48.7129C49.5413 44.0005 50.2129 44.6721 50.2129 45.5005C50.2126 46.3287 49.5412 47.0005 48.7129 47.0005H8.71289C7.88463 47.0005 7.21315 46.3287 7.21289 45.5005C7.21289 44.6721 7.88446 44.0005 8.71289 44.0005H13.1426V11.9048C13.1426 10.8003 14.0381 9.90484 15.1426 9.90479H39.6035ZM24.8164 35.9946C24.2641 35.9946 23.8164 36.4423 23.8164 36.9946V44.0005H30.9316V36.9946C30.9316 36.4423 30.4839 35.9946 29.9316 35.9946H24.8164ZM20.0723 26.5073C19.52 26.5073 19.0723 26.955 19.0723 27.5073V31.437C19.0728 31.9888 19.5203 32.437 20.0723 32.437H24.002C24.5538 32.4369 25.0014 31.9887 25.002 31.437V27.5073C25.002 26.9551 24.5541 26.5075 24.002 26.5073H20.0723ZM30.7441 26.5073C30.1919 26.5073 29.7441 26.955 29.7441 27.5073V31.437C29.7447 31.9888 30.1922 32.437 30.7441 32.437H34.6738C35.2256 32.4369 35.6733 31.9887 35.6738 31.437V27.5073C35.6738 26.9551 35.226 26.5075 34.6738 26.5073H30.7441ZM20.0723 15.8345C19.52 15.8345 19.0723 16.2822 19.0723 16.8345V20.7642C19.0728 21.316 19.5203 21.7642 20.0723 21.7642H24.002C24.5538 21.764 25.0014 21.3159 25.002 20.7642V16.8345C25.002 16.2823 24.5541 15.8346 24.002 15.8345H20.0723ZM30.7441 15.8345C30.1919 15.8345 29.7441 16.2822 29.7441 16.8345V20.7642C29.7447 21.316 30.1922 21.7642 30.7441 21.7642H34.6738C35.2256 21.764 35.6733 21.3159 35.6738 20.7642V16.8345C35.6738 16.2823 35.226 15.8346 34.6738 15.8345H30.7441Z" fill="#ED1B23"/>
</svg>
