<svg width="20" height="20" viewBox="0 0 20 20" fill="none" xmlns="http://www.w3.org/2000/svg">
<path d="M8.40933 13C8.32297 13 8.242 12.9868 8.16644 12.9605C8.09087 12.9346 8.0207 12.8904 7.95592 12.8277L5.17068 10.1342C5.05193 10.0194 4.99514 9.87051 5.00032 9.68761C5.00594 9.50512 5.06812 9.35645 5.18687 9.24161C5.30562 9.12677 5.45676 9.06935 5.64028 9.06935C5.82381 9.06935 5.97494 9.12677 6.0937 9.24161L8.40933 11.481L13.8989 6.17226C14.0176 6.05742 14.1716 6 14.3607 6C14.5494 6 14.7031 6.05742 14.8219 6.17226C14.9406 6.2871 15 6.43576 15 6.61825C15 6.80116 14.9406 6.95004 14.8219 7.06488L8.86275 12.8277C8.79797 12.8904 8.7278 12.9346 8.65223 12.9605C8.57666 12.9868 8.4957 13 8.40933 13Z" fill="#4E4E4E"/>
<path d="M15.8333 16.25V17.5H4.16667V16.25H15.8333ZM16.25 15.8333V4.16667C16.25 3.93655 16.0635 3.75 15.8333 3.75H4.16667C3.93655 3.75 3.75 3.93655 3.75 4.16667V15.8333C3.75 16.0635 3.93655 16.25 4.16667 16.25V17.5L3.99658 17.491C3.21196 17.4115 2.5885 16.788 2.50895 16.0034L2.5 15.8333V4.16667C2.5 3.24619 3.24619 2.5 4.16667 2.5H15.8333C16.7538 2.5 17.5 3.24619 17.5 4.16667V15.8333C17.5 16.6964 16.844 17.4058 16.0034 17.491L15.8333 17.5V16.25C16.0635 16.25 16.25 16.0635 16.25 15.8333Z" fill="#4E4E4E"/>
</svg>
