<svg width="18" height="18" viewBox="0 0 18 18" fill="none" xmlns="http://www.w3.org/2000/svg">
<path fill-rule="evenodd" clip-rule="evenodd" d="M8.625 5.25C10.0747 5.25 11.25 6.42525 11.25 7.875C11.25 9.32475 10.0747 10.5 8.625 10.5C7.17525 10.5 6 9.32475 6 7.875C6 6.42525 7.17525 5.25 8.625 5.25ZM8.625 6.375C7.79657 6.375 7.125 7.04657 7.125 7.875C7.125 8.70343 7.79657 9.375 8.625 9.375C9.45343 9.375 10.125 8.70343 10.125 7.875C10.125 7.04657 9.45343 6.375 8.625 6.375Z" fill="#ED1B23"/>
<path fill-rule="evenodd" clip-rule="evenodd" d="M8.95312 1.50806C12.3214 1.67271 15 4.35806 15 7.64648L14.9956 7.89771C14.8025 13.1555 8.625 17.25 8.625 17.25L8.35107 17.0581C7.1528 16.1916 2.423 12.4879 2.25439 7.89771L2.25 7.64648C2.25 4.25195 5.10418 1.5 8.625 1.5L8.95312 1.50806ZM8.625 2.625C5.68642 2.625 3.375 4.91165 3.375 7.64648C3.37506 9.90552 4.73113 12.039 6.2644 13.7021C7.01388 14.5151 7.76715 15.1734 8.3335 15.6284C8.43731 15.7118 8.53554 15.7872 8.625 15.8562C8.71446 15.7872 8.81269 15.7118 8.9165 15.6284C9.48285 15.1734 10.2361 14.5151 10.9856 13.7021C12.5189 12.039 13.8749 9.90552 13.875 7.64648C13.875 4.91165 11.5636 2.625 8.625 2.625Z" fill="#ED1B23"/>
</svg>
