<svg width="24" height="24" viewBox="0 0 24 24" fill="none" xmlns="http://www.w3.org/2000/svg">
<path d="M7.83301 16C7.83301 16.0921 7.90763 16.1667 7.99967 16.1667H15.9997C16.0917 16.1667 16.1663 16.0921 16.1663 16V14H17.1663V16C17.1663 16.6443 16.644 17.1667 15.9997 17.1667H7.99967C7.35534 17.1667 6.83301 16.6443 6.83301 16V14H7.83301V16Z" fill="#4E4E4E"/>
<path d="M12.4997 13.4596L14.3128 11.6465L15.0199 12.3535L12.3532 15.0202L12.3154 15.0547C12.119 15.2149 11.8292 15.2033 11.6462 15.0202L8.97949 12.3535L9.68652 11.6465L11.4997 13.4596V7.33334H12.4997V13.4596Z" fill="#4E4E4E"/>
</svg>
