<svg width="21" height="20" viewBox="0 0 21 20" fill="none" xmlns="http://www.w3.org/2000/svg">
<path d="M16.746 15.4013L15.8347 12.6666H14.8347L15.39 15.3333H5.61266L6.16799 12.6666H5.16799L4.25599 15.4013C4.02466 16.0973 4.43466 16.6666 5.16799 16.6666H15.8347C16.568 16.6666 16.978 16.0973 16.746 15.4013ZM13.8347 6.66665C13.8347 5.78259 13.4835 4.93475 12.8583 4.30962C12.2332 3.6845 11.3854 3.33331 10.5013 3.33331C9.61727 3.33331 8.76942 3.6845 8.1443 4.30962C7.51918 4.93475 7.16799 5.78259 7.16799 6.66665C7.16799 9.84998 10.5013 13.3333 10.5013 13.3333C10.5013 13.3333 13.8347 9.84998 13.8347 6.66665ZM8.70133 6.70665C8.7015 6.22937 8.89122 5.77171 9.22877 5.43429C9.56632 5.09686 10.0241 4.90731 10.5013 4.90731C10.9786 4.90731 11.4364 5.09692 11.7739 5.43442C12.1114 5.77193 12.301 6.22968 12.301 6.70698C12.301 7.18428 12.1114 7.64203 11.7739 7.97954C11.4364 8.31704 10.9786 8.50665 10.5013 8.50665C10.0239 8.50665 9.5661 8.317 9.22853 7.97944C8.89097 7.64187 8.70133 7.18404 8.70133 6.70665Z" fill="white"/>
</svg>
