<svg width="18" height="18" viewBox="0 0 18 18" fill="none" xmlns="http://www.w3.org/2000/svg">
<path d="M5.625 9C6.24632 9 6.75 9.50368 6.75 10.125C6.75 10.7463 6.24632 11.25 5.625 11.25C5.00368 11.25 4.5 10.7463 4.5 10.125C4.5 9.50368 5.00368 9 5.625 9Z" fill="#1BAA5E"/>
<path d="M12.375 9C12.9963 9 13.5 9.50368 13.5 10.125C13.5 10.7463 12.9963 11.25 12.375 11.25C11.7537 11.25 11.25 10.7463 11.25 10.125C11.25 9.50368 11.7537 9 12.375 9Z" fill="#1BAA5E"/>
<path fill-rule="evenodd" clip-rule="evenodd" d="M13.092 3.19116C13.588 3.22883 14.0243 3.54511 14.2112 4.01221L15.4687 7.15723C15.5307 7.31214 15.5625 7.47745 15.5625 7.64429L15.5625 15H13.6875L13.6875 13.3125H4.6875L4.6875 15H2.4375L2.4375 7.64429C2.43752 7.47745 2.46932 7.31214 2.53125 7.15723L3.78882 4.01221C3.98816 3.51407 4.47103 3.18758 5.00757 3.1875H12.9924L13.092 3.19116ZM3.5625 12C3.5625 12.1036 3.64645 12.1875 3.75 12.1875H14.25C14.3536 12.1875 14.4375 12.1036 14.4375 12L14.4375 8.0625H3.5625L3.5625 12ZM5.00757 4.3125C4.931 4.31258 4.86245 4.35933 4.83398 4.43042L3.83057 6.9375H14.1694L13.166 4.43042C13.1447 4.37713 13.1011 4.33705 13.0481 4.32056L12.9924 4.3125H5.00757Z" fill="#1BAA5E"/>
</svg>
