<svg width="18" height="20" viewBox="0 0 18 20" fill="none" xmlns="http://www.w3.org/2000/svg">
<path d="M12 0C12.5523 0 13 0.447715 13 1V2H16C17.1046 2 18 2.89543 18 4V18C18 19.0357 17.2128 19.887 16.2041 19.9893L16 20H2L1.7959 19.9893C0.854346 19.8938 0.1062 19.1457 0.0107422 18.2041L0 18V4C0 2.89543 0.895431 2 2 2H5V1C5 0.447715 5.44772 0 6 0C6.55228 0 7 0.447715 7 1V2H11V1C11 0.447715 11.4477 0 12 0ZM1.5 9V18C1.5 18.2761 1.72386 18.5 2 18.5H16C16.2761 18.5 16.5 18.2761 16.5 18V9H1.5ZM7.59961 15C7.82052 15 8 15.1795 8 15.4004V16.5996C8 16.8205 7.82052 17 7.59961 17H6.40039C6.17948 17 6 16.8205 6 16.5996V15.4004C6 15.1795 6.17948 15 6.40039 15H7.59961ZM11.5996 15C11.8205 15 12 15.1795 12 15.4004V16.5996C12 16.8205 11.8205 17 11.5996 17H10.4004C10.1795 17 10 16.8205 10 16.5996V15.4004C10 15.1795 10.1795 15 10.4004 15H11.5996ZM7.59961 11C7.82052 11 8 11.1795 8 11.4004V12.5996C8 12.8205 7.82052 13 7.59961 13H6.40039C6.17948 13 6 12.8205 6 12.5996V11.4004C6 11.1795 6.17948 11 6.40039 11H7.59961ZM11.5996 11C11.8205 11 12 11.1795 12 11.4004V12.5996C12 12.8205 11.8205 13 11.5996 13H10.4004C10.1795 13 10 12.8205 10 12.5996V11.4004C10 11.1795 10.1795 11 10.4004 11H11.5996ZM2 3.5C1.72386 3.5 1.5 3.72386 1.5 4V7.5H16.5V4C16.5 3.72386 16.2761 3.5 16 3.5H13V4C13 4.55228 12.5523 5 12 5C11.4477 5 11 4.55228 11 4V3.5H7V4C7 4.55228 6.55228 5 6 5C5.44772 5 5 4.55228 5 4V3.5H2Z" fill="#121212"/>
</svg>
