<svg width="19" height="20" viewBox="0 0 19 20" fill="none" xmlns="http://www.w3.org/2000/svg">
<path d="M7.86346 4.84552L4.74591 1.56862C4.36524 1.16849 3.72903 1.14969 3.36798 1.56762C1.00446 4.30345 -0.880471 9.32423 4.22426 14.6899C9.32898 20.0555 14.4374 18.423 17.2876 16.1987C17.723 15.8589 17.7359 15.2226 17.3552 14.8224L14.2377 11.5455C13.857 11.1454 13.224 11.1296 12.8239 11.5103L11.1223 13.1291C10.7222 13.5098 10.0892 13.494 9.70851 13.0939L6.0914 9.29192C5.71073 8.89178 5.7265 8.25882 6.12663 7.87814L7.82823 6.25929C8.22836 5.87862 8.24413 5.24565 7.86346 4.84552Z" stroke="#ED1B23" stroke-width="1.5"/>
</svg>
