<svg width="16" height="16" viewBox="0 0 16 16" fill="none" xmlns="http://www.w3.org/2000/svg">
<path d="M8.50065 7.79298L11.0208 10.3132L10.3138 11.0202L7.50065 8.20704L7.50065 4.00001H8.50065L8.50065 7.79298Z" fill="#6B6B6B"/>
<path fill-rule="evenodd" clip-rule="evenodd" d="M8.00065 1.33334C11.6825 1.33334 14.6673 4.31811 14.6673 8.00001C14.6673 11.6819 11.6825 14.6667 8.00065 14.6667C4.31875 14.6667 1.33398 11.6819 1.33398 8.00001C1.33398 4.31811 4.31875 1.33334 8.00065 1.33334ZM8.00065 2.33334C4.87104 2.33334 2.33398 4.8704 2.33398 8.00001C2.33398 11.1296 4.87104 13.6667 8.00065 13.6667C11.1303 13.6667 13.6673 11.1296 13.6673 8.00001C13.6673 4.8704 11.1303 2.33334 8.00065 2.33334Z" fill="#6B6B6B"/>
</svg>
