<svg width="22" height="22" viewBox="0 0 22 22" fill="none" xmlns="http://www.w3.org/2000/svg">
<path d="M15.5498 4.03459L6.5389 18.2429L5.37695 17.5071L14.3879 3.29875L15.5498 4.03459Z" fill="#B0B0B0"/>
<path d="M15.7646 6.05664C16.3044 6.34704 16.8032 6.67215 17.252 7.0166C18.0467 7.62615 18.7032 8.3064 19.167 8.97461C19.618 9.62453 19.9375 10.3373 19.9375 11C19.9375 11.6628 19.6171 12.3755 19.167 13.0254C18.7032 13.6936 18.0467 14.3729 17.2529 14.9834C15.6671 16.2007 13.4603 17.1875 11 17.1875C10.2614 17.1875 9.54612 17.0969 8.86328 16.9395L9.65234 15.6943C10.0908 15.769 10.5409 15.8125 11 15.8125C13.0964 15.8125 15.0153 14.9659 16.415 13.8916C17.1133 13.3555 17.665 12.7755 18.0371 12.2412C18.4212 11.6875 18.5625 11.2539 18.5625 11C18.5625 10.7461 18.4212 10.3125 18.0371 9.75879C17.665 9.2245 17.1133 8.64453 16.415 8.1084C15.9958 7.78661 15.5296 7.48597 15.0264 7.22168L15.7646 6.05664ZM11 4.8125C12.2496 4.8125 13.4335 5.06749 14.5039 5.47754L13.749 6.66699C12.8924 6.36845 11.9653 6.1875 11 6.1875C8.90358 6.1875 6.98471 7.03407 5.58496 8.1084C4.8867 8.64453 4.33498 9.2245 3.96289 9.75879C3.57881 10.3125 3.4375 10.7461 3.4375 11C3.4375 11.2539 3.57881 11.6875 3.96289 12.2412C4.33498 12.7755 4.8867 13.3555 5.58496 13.8916C6.34065 14.4716 7.24837 14.9831 8.25293 15.333L7.49902 16.5225C6.46094 16.1251 5.52904 15.5829 4.74805 14.9834C3.95335 14.3739 3.29684 13.6936 2.83301 13.0254C2.38292 12.3755 2.0625 11.6628 2.0625 11C2.0625 10.3373 2.38292 9.62453 2.83301 8.97461C3.29684 8.3064 3.95329 7.62706 4.74707 7.0166C6.33382 5.79927 8.53967 4.8125 11 4.8125ZM13.8496 9.07715C14.2301 9.64105 14.4375 10.3099 14.4375 11C14.4375 11.9117 14.0753 12.786 13.4307 13.4307C12.786 14.0753 11.9117 14.4375 11 14.4375C10.8233 14.4375 10.6481 14.4231 10.4756 14.3965L11.3418 13.0312C11.7617 12.9605 12.1529 12.7632 12.458 12.458C12.8448 12.0712 13.0625 11.547 13.0625 11C13.0625 10.8096 13.0341 10.6225 12.9834 10.4424L13.8496 9.07715ZM11 7.5625C11.6576 7.5625 12.2952 7.75169 12.8418 8.09863L12.1045 9.26074C11.7766 9.05231 11.3947 8.9375 11 8.9375C10.453 8.9375 9.92879 9.1552 9.54199 9.54199C9.1552 9.92879 8.9375 10.453 8.9375 11C8.9375 11.547 9.1552 12.0712 9.54199 12.458C9.65021 12.5662 9.77024 12.6596 9.89746 12.7402L9.16016 13.9023C8.94827 13.768 8.74953 13.6109 8.56934 13.4307C7.92468 12.786 7.5625 11.9117 7.5625 11C7.5625 10.0883 7.92468 9.21399 8.56934 8.56934C9.21399 7.92468 10.0883 7.5625 11 7.5625Z" fill="#B0B0B0"/>
</svg>
