<svg width="24" height="25" viewBox="0 0 24 25" fill="none" xmlns="http://www.w3.org/2000/svg">
<path d="M15 16.75C15.4142 16.75 15.75 17.0858 15.75 17.5C15.75 17.9142 15.4142 18.25 15 18.25H8C7.58579 18.25 7.25 17.9142 7.25 17.5C7.25 17.0858 7.58579 16.75 8 16.75H15Z" fill="#ED1B23"/>
<path d="M15 11.75C15.4142 11.75 15.75 12.0858 15.75 12.5C15.75 12.9142 15.4142 13.25 15 13.25H8C7.58579 13.25 7.25 12.9142 7.25 12.5C7.25 12.0858 7.58579 11.75 8 11.75H15Z" fill="#ED1B23"/>
<path d="M11 6.75C11.4142 6.75 11.75 7.08579 11.75 7.5C11.75 7.91421 11.4142 8.25 11 8.25H8C7.58579 8.25 7.25 7.91421 7.25 7.5C7.25 7.08579 7.58579 6.75 8 6.75H11Z" fill="#ED1B23"/>
<path fill-rule="evenodd" clip-rule="evenodd" d="M18 2.5C19.1046 2.5 20 3.39543 20 4.5V20.5L19.9893 20.7041C19.887 21.7128 19.0357 22.5 18 22.5H6C4.96435 22.5 4.113 21.7128 4.01074 20.7041L4 20.5V4.5C4 3.39543 4.89543 2.5 6 2.5H18ZM6 4C5.72386 4 5.5 4.22386 5.5 4.5V20.5C5.5 20.7761 5.72386 21 6 21H18C18.2761 21 18.5 20.7761 18.5 20.5V4.5C18.5 4.22386 18.2761 4 18 4H6Z" fill="#ED1B23"/>
</svg>
