<svg width="24" height="24" viewBox="0 0 24 24" fill="none" xmlns="http://www.w3.org/2000/svg">
<path fill-rule="evenodd" clip-rule="evenodd" d="M12 2C17.5228 2 22 6.47715 22 12C22 17.5228 17.5228 22 12 22C6.47715 22 2 17.5228 2 12C2 6.47715 6.47715 2 12 2ZM12 3.5C7.30558 3.5 3.5 7.30558 3.5 12H9C11.2091 12 13 13.7909 13 16V17H10V19H7.18066C8.5505 19.9449 10.21 20.5 12 20.5C16.5845 20.5 20.3188 16.8704 20.4912 12.3281C20.1249 12.7391 19.5938 13 19 13H16C14.8954 13 14 12.1046 14 11V10H10V8C10 6.89543 10.8954 6 12 6H13C13 4.93151 13.838 4.06075 14.8926 4.00488C13.9897 3.67816 13.0156 3.5 12 3.5Z" fill="#ED1B23"/>
</svg>
