<svg width="24" height="25" viewBox="0 0 24 25" fill="none" xmlns="http://www.w3.org/2000/svg">
<path d="M10.8635 6.84552L7.74591 3.56862C7.36524 3.16849 6.72903 3.14969 6.36798 3.56762C4.00446 6.30345 2.11953 11.3242 7.22426 16.6899C12.329 22.0555 17.4374 20.423 20.2876 18.1987C20.723 17.8589 20.7359 17.2226 20.3552 16.8224L17.2377 13.5455C16.857 13.1454 16.224 13.1296 15.8239 13.5103L14.1223 15.1291C13.7222 15.5098 13.0892 15.494 12.7085 15.0939L9.0914 11.2919C8.71073 10.8918 8.7265 10.2588 9.12663 9.87814L10.8282 8.25929C11.2284 7.87862 11.2441 7.24565 10.8635 6.84552Z" stroke="#ED1B23" stroke-width="1.5"/>
</svg>
