<svg width="32" height="32" viewBox="0 0 32 32" fill="none" xmlns="http://www.w3.org/2000/svg">
<path d="M19.4535 24.667C19.7295 24.6672 19.9563 24.8921 19.9222 25.166C19.6765 27.1393 17.9933 28.6667 15.9535 28.667C13.9135 28.667 12.2295 27.1395 11.9838 25.166C11.9497 24.892 12.1774 24.667 12.4535 24.667H19.4535ZM16.0004 4C18.0006 4.00019 23.3333 5.51243 23.3334 13.5117C23.3334 17.6831 24.5534 19.7838 25.7387 21.0439C26.3514 21.6957 26.0131 22.6545 25.1185 22.6475L7.04529 22.5049C6.19482 22.4982 5.83249 21.5884 6.40955 20.9639C7.54645 19.7343 8.66638 17.849 8.66638 13.333C8.66653 5.3333 14.0004 4 16.0004 4Z" fill="url(#paint0_linear_331_3306)"/>
<g filter="url(#filter0_f_331_3306)">
<ellipse cx="23.3327" cy="7.33332" rx="4.66667" ry="4.66667" fill="url(#paint1_linear_331_3306)"/>
</g>
<defs>
<filter id="filter0_f_331_3306" x="18.566" y="2.56666" width="9.53398" height="9.53334" filterUnits="userSpaceOnUse" color-interpolation-filters="sRGB">
<feFlood flood-opacity="0" result="BackgroundImageFix"/>
<feBlend mode="normal" in="SourceGraphic" in2="BackgroundImageFix" result="shape"/>
<feGaussianBlur stdDeviation="0.05" result="effect1_foregroundBlur_331_3306"/>
</filter>
<linearGradient id="paint0_linear_331_3306" x1="16.0888" y1="2.66665" x2="16.0888" y2="28.667" gradientUnits="userSpaceOnUse">
<stop stop-color="#ED1B23"/>
<stop offset="1" stop-color="#F0363C"/>
</linearGradient>
<linearGradient id="paint1_linear_331_3306" x1="19.9993" y1="3.99999" x2="28.666" y2="12.6667" gradientUnits="userSpaceOnUse">
<stop stop-color="#FF9800"/>
<stop offset="1" stop-color="#FFE2BD"/>
</linearGradient>
</defs>
</svg>
