<svg width="14" height="18" viewBox="0 0 14 18" fill="none" xmlns="http://www.w3.org/2000/svg">
<path d="M9.33008 0C9.88031 0 10.4064 0.226946 10.7842 0.626953L13.4541 3.45312C13.8047 3.82432 13.9999 4.31561 14 4.82617V16C14 17.1046 13.1046 18 12 18H2C0.895431 18 8.05332e-09 17.1046 0 16V2C0 0.895431 0.895431 4.83192e-08 2 0H9.33008ZM2 1.5C1.72386 1.5 1.5 1.72386 1.5 2V16C1.5 16.2761 1.72386 16.5 2 16.5H12C12.2761 16.5 12.5 16.2761 12.5 16V5.75H10C9.0335 5.75 8.25 4.9665 8.25 4V1.5H2ZM10 12.75C10.4142 12.75 10.75 13.0858 10.75 13.5C10.75 13.9142 10.4142 14.25 10 14.25H3C2.58579 14.25 2.25 13.9142 2.25 13.5C2.25 13.0858 2.58579 12.75 3 12.75H10ZM10 9.75C10.4142 9.75 10.75 10.0858 10.75 10.5C10.75 10.9142 10.4142 11.25 10 11.25H3C2.58579 11.25 2.25 10.9142 2.25 10.5C2.25 10.0858 2.58579 9.75 3 9.75H10ZM6 6.75C6.41421 6.75 6.75 7.08579 6.75 7.5C6.75 7.91421 6.41421 8.25 6 8.25H3C2.58579 8.25 2.25 7.91421 2.25 7.5C2.25 7.08579 2.58579 6.75 3 6.75H6ZM9.75 4C9.75 4.13807 9.86193 4.25 10 4.25H12.1426L9.75 1.71582V4Z" fill="#121212"/>
</svg>
