<svg width="20" height="20" viewBox="0 0 20 20" fill="none" xmlns="http://www.w3.org/2000/svg">
<path d="M10.0013 18.3337C5.3988 18.3337 1.66797 14.6028 1.66797 10.0003C1.66797 5.39783 5.3988 1.66699 10.0013 1.66699C14.6038 1.66699 18.3346 5.39783 18.3346 10.0003C18.3346 14.6028 14.6038 18.3337 10.0013 18.3337ZM10.0013 16.667C11.7694 16.667 13.4651 15.9646 14.7153 14.7144C15.9656 13.4641 16.668 11.7684 16.668 10.0003C16.668 8.23222 15.9656 6.53652 14.7153 5.28628C13.4651 4.03604 11.7694 3.33366 10.0013 3.33366C8.23319 3.33366 6.5375 4.03604 5.28726 5.28628C4.03701 6.53652 3.33464 8.23222 3.33464 10.0003C3.33464 11.7684 4.03701 13.4641 5.28726 14.7144C6.5375 15.9646 8.23319 16.667 10.0013 16.667ZM10.0013 14.167C8.89623 14.167 7.83643 13.728 7.05502 12.9466C6.27362 12.1652 5.83464 11.1054 5.83464 10.0003C5.83464 8.89526 6.27362 7.83545 7.05502 7.05405C7.83643 6.27265 8.89623 5.83366 10.0013 5.83366C11.1064 5.83366 12.1662 6.27265 12.9476 7.05405C13.729 7.83545 14.168 8.89526 14.168 10.0003C14.168 11.1054 13.729 12.1652 12.9476 12.9466C12.1662 13.728 11.1064 14.167 10.0013 14.167Z" fill="#131313"/>
</svg>
