<svg width="20" height="20" viewBox="0 0 20 20" fill="none" xmlns="http://www.w3.org/2000/svg">
<path d="M4.79163 14.9998C4.79163 15.1149 4.8849 15.2082 4.99996 15.2082H15C15.115 15.2082 15.2083 15.1149 15.2083 14.9998V12.4998H16.4583V14.9998C16.4583 15.8053 15.8054 16.4582 15 16.4582H4.99996C4.19454 16.4582 3.54163 15.8053 3.54163 14.9998V12.4998H4.79163V14.9998Z" fill="#ED1B23"/>
<path d="M10.625 11.8244L12.8914 9.55794L13.7752 10.4417L10.4419 13.7751L10.3947 13.8182C10.1492 14.0185 9.7869 14.0039 9.55807 13.7751L6.22473 10.4417L7.10852 9.55794L9.37496 11.8244V4.1665H10.625V11.8244Z" fill="#ED1B23"/>
</svg>
