<svg width="18" height="19" viewBox="0 0 18 19" fill="none" xmlns="http://www.w3.org/2000/svg">
<path d="M9.5625 9.26709L12.3977 12.1023L11.6023 12.8977L8.4375 9.73291V5H9.5625V9.26709Z" fill="#F0363C"/>
<path fill-rule="evenodd" clip-rule="evenodd" d="M9 2C13.1421 2 16.5 5.35786 16.5 9.5C16.5 13.6421 13.1421 17 9 17C4.85786 17 1.5 13.6421 1.5 9.5C1.5 5.35786 4.85786 2 9 2ZM9 3.125C5.47918 3.125 2.625 5.97918 2.625 9.5C2.625 13.0208 5.47918 15.875 9 15.875C12.5208 15.875 15.375 13.0208 15.375 9.5C15.375 5.97918 12.5208 3.125 9 3.125Z" fill="#F0363C"/>
</svg>
