<svg width="20" height="20" viewBox="0 0 20 20" fill="none" xmlns="http://www.w3.org/2000/svg">
<path fill-rule="evenodd" clip-rule="evenodd" d="M11.4222 1.67561C11.8253 1.71803 12.2015 1.90657 12.4777 2.20865L16.2293 6.31184C16.5102 6.61901 16.6663 7.02029 16.6663 7.43651V16.6667C16.6663 17.5871 15.9201 18.3333 14.9997 18.3333H4.99967C4.0792 18.3333 3.33301 17.5871 3.33301 16.6667V3.33332C3.33301 2.41285 4.0792 1.66666 4.99967 1.66666H11.248L11.4222 1.67561ZM4.99967 2.91666C4.79825 2.91666 4.62992 3.05953 4.59115 3.2495L4.58301 3.33332V16.6667C4.58301 16.8968 4.76956 17.0833 4.99967 17.0833H14.9997C15.2011 17.0833 15.3694 16.9405 15.4082 16.7505L15.4163 16.6667V8.12499H11.6663C10.8609 8.12499 10.208 7.47207 10.208 6.66666V2.91666H4.99967ZM11.458 6.66666C11.458 6.78172 11.5513 6.87499 11.6663 6.87499H15.0509L11.5548 3.05175C11.5266 3.0209 11.4934 2.99603 11.458 2.97525V6.66666Z" fill="#6B6B6B"/>
</svg>
