<svg width="24" height="24" viewBox="0 0 24 24" fill="none" xmlns="http://www.w3.org/2000/svg">
<path d="M19.4952 18.4816L18.4016 15.2H17.2016L17.868 18.4H6.13519L6.80159 15.2H5.60159L4.50719 18.4816C4.22959 19.3168 4.72159 20 5.60159 20H18.4016C19.2816 20 19.7736 19.3168 19.4952 18.4816ZM16.0016 8C16.0016 6.93913 15.5802 5.92172 14.83 5.17157C14.0799 4.42143 13.0625 4 12.0016 4C10.9407 4 9.92331 4.42143 9.17316 5.17157C8.42302 5.92172 8.00159 6.93913 8.00159 8C8.00159 11.82 12.0016 16 12.0016 16C12.0016 16 16.0016 11.82 16.0016 8ZM9.84159 8.048C9.8418 7.47527 10.0695 6.92607 10.4745 6.52117C10.8796 6.11626 11.4289 5.8888 12.0016 5.8888C12.5744 5.8888 13.1237 6.11633 13.5287 6.52133C13.9337 6.92634 14.1612 7.47564 14.1612 8.0484C14.1612 8.62116 13.9337 9.17046 13.5287 9.57547C13.1237 9.98047 12.5744 10.208 12.0016 10.208C11.4287 10.208 10.8793 9.98043 10.4742 9.57535C10.0692 9.17027 9.84159 8.62087 9.84159 8.048Z" fill="#121212"/>
</svg>
