<svg width="18" height="18" viewBox="0 0 18 18" fill="none" xmlns="http://www.w3.org/2000/svg">
<g clip-path="url(#clip0_161_7891)">
<path d="M12.3304 4.64813C12.5483 4.4302 12.8439 4.30777 13.1521 4.30777C13.4603 4.30777 13.7559 4.4302 13.9738 4.64813C14.1917 4.86606 14.3142 5.16163 14.3142 5.46983C14.3142 5.77803 14.1917 6.0736 13.9738 6.29153L11.9275 8.33786L13.4189 13.1263C13.4546 13.2411 13.4583 13.3634 13.4295 13.4802C13.4007 13.5969 13.3406 13.7035 13.2556 13.7885L13.0546 13.9895C13.0135 14.0308 12.9637 14.0624 12.9089 14.0822C12.8541 14.102 12.7957 14.1094 12.7377 14.104C12.6797 14.0985 12.6236 14.0803 12.5734 14.0507C12.5232 14.0211 12.4802 13.9808 12.4475 13.9326L9.96835 10.297L8.05307 12.2123C8.00226 12.2629 7.96618 12.3264 7.94868 12.396C7.93118 12.4656 7.93293 12.5386 7.95374 12.6073L8.35759 13.9401C8.40943 14.1114 8.41382 14.2936 8.3703 14.4672C8.32677 14.6408 8.23696 14.7994 8.11043 14.9259L7.90197 15.1344C7.86008 15.1763 7.80932 15.2083 7.75342 15.228C7.69752 15.2477 7.63791 15.2545 7.579 15.2481C7.52009 15.2416 7.46338 15.222 7.41306 15.1907C7.36274 15.1594 7.32009 15.1172 7.28826 15.0673L5.83419 12.7877L3.55468 11.3337C3.5047 11.3018 3.4625 11.2592 3.4312 11.2089C3.3999 11.1586 3.38031 11.1018 3.37386 11.0429C3.36741 10.984 3.37428 10.9244 3.39396 10.8685C3.41363 10.8126 3.44561 10.7619 3.48753 10.72L3.69599 10.5115C3.82258 10.385 3.98113 10.2952 4.15475 10.2516C4.32836 10.2081 4.51053 10.2125 4.68184 10.2643L6.01513 10.6677C6.08368 10.6885 6.15659 10.6903 6.22607 10.6729C6.29555 10.6555 6.359 10.6195 6.40966 10.5689L8.32448 8.65405L4.68977 6.17401C4.64161 6.14123 4.60129 6.09823 4.57167 6.04806C4.54206 5.9979 4.52388 5.94181 4.51845 5.88381C4.51301 5.82581 4.52045 5.76732 4.54023 5.71253C4.56001 5.65774 4.59165 5.60798 4.63288 5.56683L4.83341 5.3663C4.91843 5.28116 5.02512 5.22091 5.14192 5.19205C5.25873 5.1632 5.3812 5.16685 5.49609 5.20261L10.2841 6.69446L12.3304 4.64813Z" stroke="#6B6B6B" stroke-width="1.5" stroke-linecap="round" stroke-linejoin="round"/>
</g>
<defs>
<clipPath id="clip0_161_7891">
<rect width="18" height="18" fill="white"/>
</clipPath>
</defs>
</svg>
