<svg width="24" height="24" viewBox="0 0 24 24" fill="none" xmlns="http://www.w3.org/2000/svg">
<path d="M3.45067 4.23651C3.66 3.46641 4.388 3.001 5.15333 3.001C5.62533 3.001 6.05467 3.17199 6.38133 3.45098C6.7415 3.15967 7.19657 3 7.66667 3C8.13676 3 8.59184 3.15967 8.952 3.45098C9.28997 3.1604 9.72719 3.00019 10.18 3.001C10.9453 3.001 11.6733 3.46641 11.8827 4.23651C12.0827 4.97189 12.3333 6.15726 12.3333 7.50075C12.3333 8.251 12.1387 8.98933 11.7673 9.64857C11.3959 10.3078 10.8594 10.8671 10.2067 11.2754C9.84533 11.503 9.66667 11.7961 9.66667 12.0468V12.5559C9.66667 12.585 9.66845 12.6133 9.672 12.6408C9.71733 12.9596 9.88133 14.1437 10.0347 15.3715C10.1853 16.5761 10.3333 17.89 10.3333 18.4287C10.3333 19.1107 10.0524 19.7647 9.55229 20.2469C9.05219 20.7291 8.37391 21 7.66667 21C6.95942 21 6.28115 20.7291 5.78105 20.2469C5.28095 19.7647 5 19.1107 5 18.4287C5 17.8887 5.148 16.5774 5.29867 15.3715C5.452 14.1437 5.616 12.9596 5.66133 12.6408L5.66667 12.5559V12.0468C5.66667 11.7961 5.488 11.503 5.12667 11.2754C4.47394 10.8671 3.93746 10.3078 3.56604 9.64857C3.19461 8.98933 3.00003 8.251 3 7.50075C3 6.15726 3.25067 4.97189 3.45067 4.23651ZM9.66667 8.14357C9.66667 8.31406 9.59643 8.47756 9.4714 8.59812C9.34638 8.71867 9.17681 8.7864 9 8.7864C8.82319 8.7864 8.65362 8.71867 8.5286 8.59812C8.40357 8.47756 8.33333 8.31406 8.33333 8.14357V4.92947C8.33333 4.75898 8.2631 4.59548 8.13807 4.47492C8.01305 4.35437 7.84348 4.28665 7.66667 4.28665C7.48986 4.28665 7.32029 4.35437 7.19526 4.47492C7.07024 4.59548 7 4.75898 7 4.92947V8.14357C7 8.31406 6.92976 8.47756 6.80474 8.59812C6.67971 8.71867 6.51014 8.7864 6.33333 8.7864C6.15652 8.7864 5.98695 8.71867 5.86193 8.59812C5.7369 8.47756 5.66667 8.31406 5.66667 8.14357V4.78162C5.66667 4.65034 5.61258 4.52445 5.51631 4.43162C5.42005 4.3388 5.28948 4.28665 5.15333 4.28665C4.932 4.28665 4.78 4.41393 4.74 4.56306C4.47724 5.52198 4.34061 6.50895 4.33333 7.50075C4.33327 8.03691 4.47231 8.56457 4.73779 9.03567C5.00327 9.50678 5.38676 9.90636 5.85333 10.198C6.43867 10.5644 7 11.2085 7 12.0468V12.5559C7 12.6416 6.99422 12.7273 6.98267 12.813C6.93733 13.1293 6.77467 14.3057 6.62267 15.5257C6.468 16.7664 6.33333 17.9865 6.33333 18.4287C6.33333 18.7697 6.47381 19.0967 6.72386 19.3378C6.97391 19.5789 7.31305 19.7144 7.66667 19.7144C8.02029 19.7144 8.35943 19.5789 8.60948 19.3378C8.85952 19.0967 9 18.7697 9 18.4287C9 17.9865 8.86667 16.7664 8.71067 15.5244C8.55867 14.3057 8.396 13.1293 8.35067 12.8117C8.34052 12.7272 8.33474 12.6423 8.33333 12.5572V12.0481C8.33333 11.2098 8.89467 10.5657 9.48 10.1993C9.94676 9.90753 10.3304 9.50774 10.5959 9.0364C10.8614 8.56505 11.0003 8.03713 11 7.50075C11 6.30253 10.776 5.23288 10.5933 4.56306C10.5533 4.41521 10.4 4.28665 10.18 4.28665C10.0439 4.28665 9.91329 4.3388 9.81702 4.43162C9.72075 4.52445 9.66667 4.65034 9.66667 4.78162V8.14357ZM13.6667 8.7864C13.6667 7.25201 14.2988 5.78048 15.424 4.69551C16.5492 3.61053 18.0754 3.001 19.6667 3.001C19.8435 3.001 20.013 3.06873 20.1381 3.18928C20.2631 3.30983 20.3333 3.47334 20.3333 3.64383V11.323L20.3587 11.5505C20.4647 12.51 20.5665 13.47 20.664 14.4304C20.828 16.0451 21 17.8553 21 18.4287C21 19.1107 20.719 19.7647 20.219 20.2469C19.7189 20.7291 19.0406 21 18.3333 21C17.6261 21 16.9478 20.7291 16.4477 20.2469C15.9476 19.7647 15.6667 19.1107 15.6667 18.4287C15.6667 17.8553 15.8387 16.0451 16.0027 14.4304C16.0867 13.6114 16.1707 12.8272 16.2333 12.2461L16.26 12.0005H15C14.6464 12.0005 14.3072 11.8651 14.0572 11.6239C13.8071 11.3828 13.6667 11.0558 13.6667 10.7149V8.7864ZM17.6627 11.4258L17.6347 11.6855C17.5304 12.6422 17.4291 13.5991 17.3307 14.5564C17.1613 16.211 17 17.9376 17 18.4287C17 18.7697 17.1405 19.0967 17.3905 19.3378C17.6406 19.5789 17.9797 19.7144 18.3333 19.7144C18.687 19.7144 19.0261 19.5789 19.2761 19.3378C19.5262 19.0967 19.6667 18.7697 19.6667 18.4287C19.6667 17.9363 19.5053 16.211 19.336 14.5564C19.2382 13.5991 19.1369 12.6421 19.032 11.6855L19.004 11.4271L19 11.3577V4.33164C17.8891 4.48625 16.8733 5.02172 16.1386 5.8399C15.4039 6.65808 14.9997 7.70416 15 8.7864V10.7149H17C17.0935 10.7149 17.1859 10.7339 17.2713 10.7706C17.3567 10.8073 17.4331 10.8609 17.4956 10.928C17.5581 10.995 17.6053 11.074 17.634 11.1598C17.6628 11.2455 17.6726 11.3362 17.6627 11.4258Z" fill="#121212"/>
</svg>
