<svg width="24" height="24" viewBox="0 0 24 24" fill="none" xmlns="http://www.w3.org/2000/svg">
<path d="M13.1229 20.5596C13.3459 20.2515 13.7703 20.1567 14.1063 20.3516C14.4643 20.5594 14.5863 21.0178 14.3788 21.376L14.2831 21.5293C14.049 21.8779 13.7381 22.1695 13.3729 22.3799C12.9554 22.6203 12.4816 22.7461 11.9999 22.7461C11.5181 22.7461 11.0443 22.6203 10.6268 22.3799C10.2094 22.1394 9.86267 21.7927 9.62096 21.376C9.41343 21.0178 9.53541 20.5594 9.89342 20.3516C10.2294 20.1567 10.6539 20.2515 10.8768 20.5596L10.9188 20.624L11.0096 20.7598C11.1092 20.889 11.2336 20.9981 11.3758 21.0801C11.5656 21.1893 11.7809 21.2461 11.9999 21.2461C12.2188 21.2461 12.4342 21.1893 12.6239 21.0801C12.8135 20.9708 12.971 20.8133 13.0809 20.624L13.1229 20.5596ZM17.2499 8.40039C17.2499 6.88723 16.6862 5.44383 15.6962 4.3877C14.7075 3.33312 13.3747 2.75 11.9999 2.75C10.6249 2.75 9.29319 3.33217 8.30358 4.3877C7.31349 5.44383 6.74987 6.88723 6.74987 8.40039C6.74981 12.2364 5.97869 14.7562 5.16784 16.3418C4.99002 16.6895 4.80982 16.9904 4.63756 17.25H19.3622C19.1899 16.9904 19.0097 16.6895 18.8319 16.3418C18.021 14.7562 17.2499 12.2364 17.2499 8.40039ZM18.7499 8.40039C18.7499 12.0306 19.4788 14.3106 20.1678 15.6582C20.513 16.3332 20.8514 16.7812 21.0917 17.0518C21.2119 17.1871 21.3082 17.279 21.369 17.333C21.3993 17.36 21.4211 17.3777 21.4325 17.3867C21.4339 17.3878 21.4353 17.3888 21.4364 17.3896H21.4354C21.7006 17.5789 21.8138 17.918 21.7147 18.2285C21.6154 18.5392 21.3261 18.75 20.9999 18.75L2.99987 18.75C2.67362 18.75 2.38436 18.5392 2.28502 18.2285C2.1859 17.918 2.29911 17.5789 2.56432 17.3896H2.56334C2.56443 17.3888 2.56585 17.3878 2.56725 17.3867C2.57862 17.3777 2.6004 17.36 2.63073 17.333C2.69153 17.279 2.78786 17.1871 2.90807 17.0518C3.14836 16.7812 3.48671 16.3332 3.8319 15.6582C4.52095 14.3106 5.24982 12.0306 5.24987 8.40039C5.24987 6.51963 5.95001 4.70615 7.20983 3.3623C8.47222 2.01583 10.1948 1.25 11.9999 1.25C13.805 1.25 15.5286 2.01688 16.7899 3.3623C18.0497 4.70615 18.7499 6.51963 18.7499 8.40039Z" fill="#121212"/>
</svg>
