<svg width="21" height="20" viewBox="0 0 21 20" fill="none" xmlns="http://www.w3.org/2000/svg">
<path d="M5.29199 14.9999C5.29199 15.115 5.38527 15.2082 5.50033 15.2082H15.5003C15.6154 15.2082 15.7087 15.115 15.7087 14.9999V12.4999H16.9587V14.9999C16.9587 15.8053 16.3057 16.4582 15.5003 16.4582H5.50033C4.69491 16.4582 4.04199 15.8053 4.04199 14.9999V12.4999H5.29199V14.9999Z" fill="#4E4E4E"/>
<path d="M10.1056 3.68153C10.3511 3.48133 10.7134 3.49589 10.9422 3.72466L14.2756 7.058L13.3918 7.94179L11.1253 5.67535V13.3332H9.87533V5.67535L7.60889 7.94179L6.7251 7.058L10.0584 3.72466L10.1056 3.68153Z" fill="#4E4E4E"/>
</svg>
