<svg width="32" height="32" viewBox="0 0 32 32" fill="none" xmlns="http://www.w3.org/2000/svg">
<g filter="url(#filter0_f_331_3298)">
<ellipse cx="16.0007" cy="25.3333" rx="6.66667" ry="4" fill="url(#paint0_linear_331_3298)"/>
</g>
<path d="M15.999 2.66699C20.6502 2.66699 24.6659 5.99987 24.666 10.8516C24.666 16.6275 18.6383 22.8419 16.6367 24.7461C16.2748 25.0904 15.7243 25.0903 15.3623 24.7461C13.3609 22.8422 7.33203 16.6278 7.33203 10.8516C7.33219 5.99991 11.3479 2.66705 15.999 2.66699ZM15.999 8C14.1582 8 12.6662 9.49221 12.666 11.333C12.666 13.174 14.1581 14.667 15.999 14.667C17.84 14.667 19.332 13.174 19.332 11.333C19.3319 9.49221 17.8399 8 15.999 8Z" fill="url(#paint1_linear_331_3298)"/>
<defs>
<filter id="filter0_f_331_3298" x="9.23398" y="21.2333" width="13.534" height="8.2" filterUnits="userSpaceOnUse" color-interpolation-filters="sRGB">
<feFlood flood-opacity="0" result="BackgroundImageFix"/>
<feBlend mode="normal" in="SourceGraphic" in2="BackgroundImageFix" result="shape"/>
<feGaussianBlur stdDeviation="0.05" result="effect1_foregroundBlur_331_3298"/>
</filter>
<linearGradient id="paint0_linear_331_3298" x1="16.0007" y1="21.3333" x2="16.0007" y2="34" gradientUnits="userSpaceOnUse">
<stop stop-color="#FF9800"/>
<stop offset="1" stop-color="#FFE2BD"/>
</linearGradient>
<linearGradient id="paint1_linear_331_3298" x1="15.999" y1="2.66699" x2="15.999" y2="25.0043" gradientUnits="userSpaceOnUse">
<stop stop-color="#ED1B23"/>
<stop offset="1" stop-color="#F0363C"/>
</linearGradient>
</defs>
</svg>
