<svg width="111" height="139" viewBox="0 0 111 139" fill="none" xmlns="http://www.w3.org/2000/svg">
<path opacity="0.8" fill-rule="evenodd" clip-rule="evenodd" d="M32 30.4897C32.8284 30.4897 33.5 31.1613 33.5 31.9897C33.5 32.8182 32.8284 33.4897 32 33.4897H17C16.1716 33.4897 15.5 32.8182 15.5 31.9897C15.5 31.1613 16.1716 30.4897 17 30.4897H32ZM32.2959 32.9448C32.2338 32.9641 32.1692 32.9781 32.1025 32.9849L32.1953 32.9712C32.2296 32.9644 32.263 32.955 32.2959 32.9448Z" fill="url(#paint0_linear_388_41304)"/>
<path opacity="0.8" d="M29 38.4897C29.8284 38.4897 30.5 39.1613 30.5 39.9897C30.5 40.8182 29.8284 41.4897 29 41.4897H2C1.17157 41.4897 0.5 40.8182 0.5 39.9897C0.500025 39.1613 1.17159 38.4897 2 38.4897H29Z" fill="url(#paint1_linear_388_41304)"/>
<path opacity="0.8" fill-rule="evenodd" clip-rule="evenodd" d="M10.0234 30.5005C10.8519 30.5005 11.5234 31.1721 11.5234 32.0005C11.5232 32.8287 10.8517 33.5005 10.0234 33.5005H7.02344C6.19528 33.5004 5.52369 32.8286 5.52344 32.0005C5.52344 31.1721 6.19512 30.5006 7.02344 30.5005H10.0234ZM10.2207 32.98C10.157 32.9927 10.0909 33.0005 10.0234 33.0005L10.126 32.9956C10.158 32.9923 10.1896 32.9862 10.2207 32.98ZM6.82617 32.98C6.85732 32.9862 6.88878 32.9923 6.9209 32.9956L6.92188 32.9946C6.88947 32.9914 6.85759 32.9863 6.82617 32.98Z" fill="url(#paint2_linear_388_41304)"/>
<g opacity="0.8">
<circle cx="57.5237" cy="95.5" r="43.5" fill="#D4E7FF"/>
<mask id="mask0_388_41304" style="mask-type:alpha" maskUnits="userSpaceOnUse" x="14" y="51" width="88" height="88">
<circle cx="57.5051" cy="95.4949" r="43.5051" fill="#FFD6D6"/>
</mask>
<g mask="url(#mask0_388_41304)">
<g filter="url(#filter0_d_388_41304)">
<path d="M14.0237 75.8537C14.4857 65.4269 31.9251 57.6067 40.5871 55C46.9392 55 50.404 64.3842 52.1364 64.9055C53.8688 65.4269 55.0237 68.5549 54.4462 70.1189C53.8688 71.683 46.3617 72.7256 45.2068 73.7683C44.0518 74.811 42.8969 78.4604 38.8547 80.5458C34.8124 82.6311 30.7702 81.5884 29.6152 83.1525C28.4603 84.7165 30.1927 88.8872 31.9251 89.4086C33.6575 89.9299 36.5448 89.4086 37.6997 89.4086C38.8547 89.4086 55.0237 96.7073 55.0237 102.442C55.0237 108.177 42.8969 116.518 41.1645 118.082C39.4321 119.646 38.2772 124.86 35.9673 125.902C30.1927 127.466 34.8124 109.741 34.8124 107.656C34.8124 105.57 31.9251 105.049 29.6152 102.442C27.3054 99.8354 31.3476 95.1433 29.6152 94.1006C25.9195 92.4323 17.681 81.2409 14.0237 75.8537Z" fill="url(#paint3_linear_388_41304)"/>
</g>
<g filter="url(#filter1_d_388_41304)">
<path d="M74.6359 61.0614C75.1476 59.2618 79.5398 56.9373 81.6719 56C107.897 58.8119 104.699 96.4913 102.78 97.0537C100.861 97.6161 91.2665 113.925 90.6266 114.487C89.9867 115.05 88.0681 117.862 84.2303 116.737C80.3925 115.612 79.7531 106.614 79.7531 102.678C79.7531 98.7409 77.1945 98.1785 75.2756 98.1785C73.3568 98.1785 61.8434 97.6161 63.1226 89.1804C64.4019 80.7447 75.2756 77.9328 79.7531 80.1823C84.2305 82.4319 90.6268 81.3071 91.2665 81.3071C91.9061 81.3071 93.1854 79.0576 92.5457 77.3704C91.9061 75.6833 86.1494 76.8081 84.8701 76.2457C83.5909 75.6833 78.4738 71.1843 77.1945 73.4338C74.636 76.2457 70.1586 77.9328 68.2397 77.3704C66.3208 76.8081 67.6 73.9962 66.9603 72.309C66.3207 70.6219 67.6 67.81 68.8792 66.6852C70.1585 65.5605 72.0774 66.6852 73.9963 66.1229C75.9152 65.5605 73.9963 63.311 74.6359 61.0614Z" fill="url(#paint4_linear_388_41304)"/>
</g>
</g>
</g>
<path opacity="0.8" d="M76.6735 22.4208C73.5442 20.0365 58.9196 8.92298 56.0568 7.32368C52.847 5.53058 49.1241 7.04598 48.4935 8.54263C47.9382 9.86255 57.4801 22.9655 59.7498 26.054L76.6735 22.4208Z" fill="url(#paint5_linear_388_41304)"/>
<g opacity="0.8">
<path fill-rule="evenodd" clip-rule="evenodd" d="M54.0849 42.0934C55.4947 42.0124 56.5719 43.2678 56.3476 44.6384C56.1751 45.6912 55.2813 46.4725 54.2284 46.5358C29.1788 48.0375 9.21283 68.4049 8.3466 93.6208C8.3049 94.8283 7.32713 95.8285 6.09465 95.8288C4.8701 95.8288 3.85948 94.829 3.89933 93.5866C4.78593 65.9786 26.6572 43.6732 54.0849 42.0934ZM6.09367 95.3278L6.09465 95.3288C6.15168 95.3288 6.20799 95.3255 6.26359 95.32C6.20776 95.3255 6.15095 95.3278 6.09367 95.3278ZM55.8486 44.5837C55.8233 44.7243 55.7819 44.8587 55.7255 44.985C55.7651 44.8966 55.7986 44.8044 55.8232 44.7087L55.8486 44.5837Z" fill="url(#paint6_linear_388_41304)"/>
<path fill-rule="evenodd" clip-rule="evenodd" d="M77.3163 48.0104C77.8925 47.0753 79.0915 46.6755 80.1083 47.1599C97.6016 55.4943 109.841 73.0783 110.499 93.5886C110.539 94.8317 109.528 95.8285 108.305 95.8288C107.073 95.8288 106.094 94.8315 106.053 93.6227C105.411 74.911 94.2502 58.8692 78.2978 51.2243C77.1032 50.6518 76.6025 49.1693 77.3163 48.0104ZM108.304 95.3278L108.305 95.3288C108.362 95.3288 108.418 95.3255 108.474 95.32C108.418 95.3255 108.361 95.3278 108.304 95.3278ZM109.999 93.6052C110.005 93.7812 109.982 93.951 109.936 94.111C109.967 94.0049 109.988 93.8946 109.996 93.7809C110 93.7232 110.001 93.6645 109.999 93.6052ZM79.4462 47.4724C79.2437 47.4408 79.0388 47.4481 78.8417 47.4909C79.1863 47.4162 79.5549 47.4507 79.8935 47.612C80.3267 47.8184 80.7559 48.0319 81.1825 48.2497C81.0226 48.1681 80.863 48.0856 80.7021 48.0056L79.8935 47.612C79.7485 47.5429 79.5978 47.4961 79.4462 47.4724Z" fill="url(#paint7_linear_388_41304)"/>
</g>
<path opacity="0.8" d="M34.03 20.9202C34.6047 19.162 38.6269 19.7481 39.7761 20.3341C40.9254 20.9202 48.9699 27.3672 48.9699 27.3672C64.2929 24.2414 95.7432 17.9898 98.961 17.9898C102.983 17.9898 105.282 19.7481 105.856 21.5063C106.431 23.2646 105.282 25.6089 102.409 27.3672C100.11 28.7738 87.2773 31.4698 81.1481 32.6419C81.1481 32.6419 69.6559 52.5688 67.3574 55.4992C65.059 58.4297 61.0367 58.4297 59.8875 57.2575C58.7383 56.0853 63.9098 35.5724 63.9098 35.5724C55.8652 37.9167 49.5445 39.0889 44.9476 36.7445C41.2701 34.8691 33.4554 22.6785 34.03 20.9202Z" fill="url(#paint8_linear_388_41304)"/>
<defs>
<filter id="filter0_d_388_41304" x="12.0237" y="55" width="45" height="75" filterUnits="userSpaceOnUse" color-interpolation-filters="sRGB">
<feFlood flood-opacity="0" result="BackgroundImageFix"/>
<feColorMatrix in="SourceAlpha" type="matrix" values="0 0 0 0 0 0 0 0 0 0 0 0 0 0 0 0 0 0 127 0" result="hardAlpha"/>
<feOffset dy="2"/>
<feGaussianBlur stdDeviation="1"/>
<feComposite in2="hardAlpha" operator="out"/>
<feColorMatrix type="matrix" values="0 0 0 0 0.113725 0 0 0 0 0.309804 0 0 0 0 0.772549 0 0 0 0.06 0"/>
<feBlend mode="normal" in2="BackgroundImageFix" result="effect1_dropShadow_388_41304"/>
<feBlend mode="normal" in="SourceGraphic" in2="effect1_dropShadow_388_41304" result="shape"/>
</filter>
<filter id="filter1_d_388_41304" x="61.0237" y="56" width="45" height="65" filterUnits="userSpaceOnUse" color-interpolation-filters="sRGB">
<feFlood flood-opacity="0" result="BackgroundImageFix"/>
<feColorMatrix in="SourceAlpha" type="matrix" values="0 0 0 0 0 0 0 0 0 0 0 0 0 0 0 0 0 0 127 0" result="hardAlpha"/>
<feOffset dy="2"/>
<feGaussianBlur stdDeviation="1"/>
<feComposite in2="hardAlpha" operator="out"/>
<feColorMatrix type="matrix" values="0 0 0 0 0.113725 0 0 0 0 0.309804 0 0 0 0 0.772549 0 0 0 0.06 0"/>
<feBlend mode="normal" in2="BackgroundImageFix" result="effect1_dropShadow_388_41304"/>
<feBlend mode="normal" in="SourceGraphic" in2="effect1_dropShadow_388_41304" result="shape"/>
</filter>
<linearGradient id="paint0_linear_388_41304" x1="34" y1="36.5" x2="20" y2="28.5" gradientUnits="userSpaceOnUse">
<stop stop-color="#0065F8"/>
<stop offset="1" stop-color="#2464B4"/>
</linearGradient>
<linearGradient id="paint1_linear_388_41304" x1="28.5" y1="43" x2="11" y2="38.5" gradientUnits="userSpaceOnUse">
<stop stop-color="#0065F8"/>
<stop offset="1" stop-color="#2464B4"/>
</linearGradient>
<linearGradient id="paint2_linear_388_41304" x1="13" y1="34" x2="7" y2="30" gradientUnits="userSpaceOnUse">
<stop stop-color="#0065F8"/>
<stop offset="1" stop-color="#2464B4"/>
</linearGradient>
<linearGradient id="paint3_linear_388_41304" x1="41" y1="52" x2="32.5" y2="140.5" gradientUnits="userSpaceOnUse">
<stop stop-color="#FFBC48"/>
<stop offset="1" stop-color="#F99308"/>
</linearGradient>
<linearGradient id="paint4_linear_388_41304" x1="92.5" y1="54" x2="79.5" y2="130.5" gradientUnits="userSpaceOnUse">
<stop stop-color="#FFBC48"/>
<stop offset="1" stop-color="#F99308"/>
</linearGradient>
<linearGradient id="paint5_linear_388_41304" x1="57.8098" y1="3.97556" x2="75.5" y2="41" gradientUnits="userSpaceOnUse">
<stop stop-color="#F87615"/>
<stop offset="1" stop-color="#DB6F1D"/>
</linearGradient>
<linearGradient id="paint6_linear_388_41304" x1="90.5" y1="111" x2="24" y2="39.5" gradientUnits="userSpaceOnUse">
<stop stop-color="#0065F8"/>
<stop offset="1" stop-color="#2464B4"/>
</linearGradient>
<linearGradient id="paint7_linear_388_41304" x1="90.5" y1="111" x2="24" y2="39.5" gradientUnits="userSpaceOnUse">
<stop stop-color="#0065F8"/>
<stop offset="1" stop-color="#2464B4"/>
</linearGradient>
<linearGradient id="paint8_linear_388_41304" x1="83" y1="43.5" x2="30" y2="-0.99997" gradientUnits="userSpaceOnUse">
<stop stop-color="#FFBC48"/>
<stop offset="1" stop-color="#F99308"/>
</linearGradient>
</defs>
</svg>
