<svg width="20" height="20" viewBox="0 0 20 20" fill="none" xmlns="http://www.w3.org/2000/svg">
<path d="M15.8333 16.25V17.5H4.16667V16.25H15.8333ZM16.25 15.8333V4.16667C16.25 3.93655 16.0635 3.75 15.8333 3.75H4.16667C3.93655 3.75 3.75 3.93655 3.75 4.16667V15.8333C3.75 16.0635 3.93655 16.25 4.16667 16.25V17.5L3.99658 17.491C3.21196 17.4115 2.5885 16.788 2.50895 16.0034L2.5 15.8333V4.16667C2.5 3.24619 3.24619 2.5 4.16667 2.5H15.8333C16.7538 2.5 17.5 3.24619 17.5 4.16667V15.8333C17.5 16.6964 16.844 17.4058 16.0034 17.491L15.8333 17.5V16.25C16.0635 16.25 16.25 16.0635 16.25 15.8333Z" fill="#4E4E4E"/>
</svg>
