<svg width="20" height="20" viewBox="0 0 20 20" fill="none" xmlns="http://www.w3.org/2000/svg">
<path d="M4.79163 15.0003C4.79163 15.1154 4.8849 15.2087 4.99996 15.2087H15C15.115 15.2087 15.2083 15.1154 15.2083 15.0003V12.5003H16.4583V15.0003C16.4583 15.8057 15.8054 16.4587 15 16.4587H4.99996C4.19454 16.4587 3.54163 15.8057 3.54163 15.0003V12.5003H4.79163V15.0003Z" fill="white"/>
<path d="M10.625 11.8249L12.8914 9.55843L13.7752 10.4422L10.4419 13.7756L10.3947 13.8187C10.1492 14.0189 9.7869 14.0044 9.55807 13.7756L6.22473 10.4422L7.10852 9.55843L9.37496 11.8249V4.16699H10.625V11.8249Z" fill="white"/>
</svg>
