<svg width="20" height="20" viewBox="0 0 20 20" fill="none" xmlns="http://www.w3.org/2000/svg">
<path d="M4.79175 15.0003C4.79175 15.1154 4.88502 15.2087 5.00008 15.2087H15.0001C15.1151 15.2087 15.2084 15.1154 15.2084 15.0003V12.5003H16.4584V15.0003C16.4584 15.8057 15.8055 16.4587 15.0001 16.4587H5.00008C4.19467 16.4587 3.54175 15.8057 3.54175 15.0003V12.5003H4.79175V15.0003Z" fill="#4E4E4E"/>
<path d="M10.6251 11.8249L12.8915 9.55843L13.7753 10.4422L10.442 13.7756L10.3948 13.8187C10.1493 14.0189 9.78702 14.0044 9.55819 13.7756L6.22485 10.4422L7.10864 9.55843L9.37508 11.8249V4.16699H10.6251V11.8249Z" fill="#4E4E4E"/>
</svg>
