<svg width="24" height="24" viewBox="0 0 24 24" fill="none" xmlns="http://www.w3.org/2000/svg">
<path d="M6.75 10.4996C7.44024 10.4996 7.99981 11.0595 8 11.7496C8 12.44 7.44036 12.9996 6.75 12.9996C6.05976 12.9995 5.5 12.4399 5.5 11.7496C5.50019 11.0595 6.05988 10.4998 6.75 10.4996ZM12.25 10.4996C12.9402 10.4996 13.4998 11.0595 13.5 11.7496C13.5 12.44 12.9404 12.9996 12.25 12.9996C11.5598 12.9995 11 12.4399 11 11.7496C11.0002 11.0595 11.5599 10.4998 12.25 10.4996ZM17.75 10.4996C18.4402 10.4996 18.9998 11.0595 19 11.7496C19 12.44 18.4404 12.9996 17.75 12.9996C17.0598 12.9995 16.5 12.4399 16.5 11.7496C16.5002 11.0595 17.0599 10.4998 17.75 10.4996Z" fill="#121212"/>
</svg>
