<svg width="24" height="24" viewBox="0 0 24 24" fill="none" xmlns="http://www.w3.org/2000/svg">
<path d="M7.5 12C8.32843 12 9 12.6716 9 13.5C9 14.3284 8.32843 15 7.5 15C6.67157 15 6 14.3284 6 13.5C6 12.6716 6.67157 12 7.5 12Z" fill="#121212"/>
<path d="M16.5 12C17.3284 12 18 12.6716 18 13.5C18 14.3284 17.3284 15 16.5 15C15.6716 15 15 14.3284 15 13.5C15 12.6716 15.6716 12 16.5 12Z" fill="#121212"/>
<path fill-rule="evenodd" clip-rule="evenodd" d="M17.4561 4.25488C18.1173 4.30511 18.699 4.72681 18.9482 5.34961L20.625 9.54297C20.7076 9.74952 20.75 9.96994 20.75 10.1924V20H18.25V17.75H6.25V20H3.25V10.1924C3.25003 9.96994 3.29243 9.74952 3.375 9.54297L5.05176 5.34961C5.31754 4.68543 5.96137 4.25011 6.67676 4.25H17.3232L17.4561 4.25488ZM4.75 16C4.75 16.1381 4.86193 16.25 5 16.25H19C19.1381 16.25 19.25 16.1381 19.25 16V10.75H4.75V16ZM6.67676 5.75C6.57467 5.75011 6.48326 5.81244 6.44531 5.90723L5.10742 9.25H18.8926L17.5547 5.90723C17.5262 5.83617 17.4681 5.78274 17.3975 5.76074L17.3232 5.75H6.67676Z" fill="#121212"/>
</svg>
