<svg width="22" height="22" viewBox="0 0 22 22" fill="none" xmlns="http://www.w3.org/2000/svg">
<path d="M11 4.8125C13.4603 4.8125 15.6661 5.79929 17.252 7.0166C18.0467 7.62615 18.7032 8.3064 19.167 8.97461C19.618 9.62453 19.9375 10.3373 19.9375 11C19.9375 11.6628 19.6171 12.3755 19.167 13.0254C18.7032 13.6936 18.0467 14.3729 17.2529 14.9834C15.6671 16.2007 13.4603 17.1875 11 17.1875C8.53969 17.1875 6.33388 16.2007 4.74805 14.9834C3.95335 14.3739 3.29684 13.6936 2.83301 13.0254C2.38292 12.3755 2.0625 11.6628 2.0625 11C2.0625 10.3373 2.38292 9.62453 2.83301 8.97461C3.29684 8.3064 3.95329 7.62706 4.74707 7.0166C6.33382 5.79927 8.53967 4.8125 11 4.8125ZM11 6.1875C8.90358 6.1875 6.98471 7.03407 5.58496 8.1084C4.8867 8.64453 4.33498 9.2245 3.96289 9.75879C3.57881 10.3125 3.4375 10.7461 3.4375 11C3.4375 11.2539 3.57881 11.6875 3.96289 12.2412C4.33498 12.7755 4.8867 13.3555 5.58496 13.8916C6.98471 14.9659 8.90358 15.8125 11 15.8125C13.0964 15.8125 15.0153 14.9659 16.415 13.8916C17.1133 13.3555 17.665 12.7755 18.0371 12.2412C18.4212 11.6875 18.5625 11.2539 18.5625 11C18.5625 10.7461 18.4212 10.3125 18.0371 9.75879C17.665 9.2245 17.1133 8.64453 16.415 8.1084C15.0153 7.03407 13.0964 6.1875 11 6.1875ZM11 7.5625C11.9117 7.5625 12.786 7.92468 13.4307 8.56934C14.0753 9.21399 14.4375 10.0883 14.4375 11C14.4375 11.9117 14.0753 12.786 13.4307 13.4307C12.786 14.0753 11.9117 14.4375 11 14.4375C10.0883 14.4375 9.21399 14.0753 8.56934 13.4307C7.92468 12.786 7.5625 11.9117 7.5625 11C7.5625 10.0883 7.92468 9.21399 8.56934 8.56934C9.21399 7.92468 10.0883 7.5625 11 7.5625ZM11 8.9375C10.453 8.9375 9.92879 9.1552 9.54199 9.54199C9.1552 9.92879 8.9375 10.453 8.9375 11C8.9375 11.547 9.1552 12.0712 9.54199 12.458C9.92879 12.8448 10.453 13.0625 11 13.0625C11.547 13.0625 12.0712 12.8448 12.458 12.458C12.8448 12.0712 13.0625 11.547 13.0625 11C13.0625 10.453 12.8448 9.92879 12.458 9.54199C12.0712 9.1552 11.547 8.9375 11 8.9375Z" fill="#B0B0B0"/>
</svg>
