<svg width="24" height="24" viewBox="0 0 24 24" fill="none" xmlns="http://www.w3.org/2000/svg">
<path fill-rule="evenodd" clip-rule="evenodd" d="M11.7393 3.25C14.3265 3.25004 16.1769 4.57721 17.376 6.1748C18.3181 7.43007 18.8839 8.8827 19.125 10.0811C20.203 10.3588 21 11.3353 21 12.5V13.5L20.9873 13.7559C20.8721 14.8888 19.9998 15.7943 18.8848 15.9668C18.3873 16.9483 17.7687 17.6382 17.0029 18.085C16.1384 18.5892 15.1734 18.7307 14.1875 18.7461C13.8715 19.2013 13.3461 19.5 12.75 19.5C11.7835 19.5 11 18.7165 11 17.75C11 16.7835 11.7835 16 12.75 16C13.5387 16 14.2042 16.5221 14.4229 17.2393C15.167 17.2057 15.7559 17.0765 16.2471 16.79C16.6223 16.5711 16.9806 16.2344 17.3145 15.7002C16.5321 15.2778 16 14.4515 16 13.5V12.5C16 11.4337 16.6684 10.5253 17.6084 10.166C17.3878 9.22009 16.924 8.07212 16.1758 7.0752C15.1858 5.75629 13.7431 4.75004 11.7393 4.75C9.74322 4.75 8.39676 5.74742 7.51953 7.04492C6.84597 8.04128 6.46764 9.19344 6.32129 10.1406C7.29815 10.4806 8 11.4073 8 12.5V13.5L7.9873 13.7559C7.85918 15.0164 6.79434 16 5.5 16C4.11929 16 3 14.8807 3 13.5V12.5C3 11.3576 3.76686 10.3962 4.81348 10.0977C4.97038 8.90272 5.42913 7.4584 6.27637 6.20508C7.37088 4.58603 9.14412 3.25 11.7393 3.25ZM5.5 11.5C4.94772 11.5 4.5 11.9477 4.5 12.5V13.5C4.5 14.0523 4.94772 14.5 5.5 14.5C6.05228 14.5 6.5 14.0523 6.5 13.5V12.5C6.5 11.9477 6.05228 11.5 5.5 11.5ZM18.5 11.5C17.9477 11.5 17.5 11.9477 17.5 12.5V13.5C17.5 14.0523 17.9477 14.5 18.5 14.5C19.0523 14.5 19.5 14.0523 19.5 13.5V12.5C19.5 11.9477 19.0523 11.5 18.5 11.5Z" fill="#ED1B23"/>
</svg>
