<svg width="20" height="20" viewBox="0 0 20 20" fill="none" xmlns="http://www.w3.org/2000/svg">
<path d="M10.6243 9.74123L13.7746 12.8915L12.8908 13.7752L9.37435 10.2588V5.00002H10.6243V9.74123Z" fill="#ED1B23"/>
<path fill-rule="evenodd" clip-rule="evenodd" d="M9.99935 1.66669C14.6017 1.66669 18.3327 5.39765 18.3327 10C18.3327 14.6024 14.6017 18.3334 9.99935 18.3334C5.39698 18.3334 1.66602 14.6024 1.66602 10C1.66602 5.39765 5.39698 1.66669 9.99935 1.66669ZM9.99935 2.91669C6.08733 2.91669 2.91602 6.088 2.91602 10C2.91602 13.912 6.08733 17.0834 9.99935 17.0834C13.9114 17.0834 17.0827 13.912 17.0827 10C17.0827 6.088 13.9114 2.91669 9.99935 2.91669Z" fill="#ED1B23"/>
</svg>
