<svg width="21" height="20" viewBox="0 0 21 20" fill="none" xmlns="http://www.w3.org/2000/svg">
<path d="M5.29102 14.9999C5.29102 15.115 5.38429 15.2082 5.49935 15.2082H15.4993C15.6144 15.2082 15.7077 15.115 15.7077 14.9999V12.4999H16.9577V14.9999C16.9577 15.8053 16.3048 16.4582 15.4993 16.4582H5.49935C4.69393 16.4582 4.04102 15.8053 4.04102 14.9999V12.4999H5.29102V14.9999Z" fill="#4E4E4E"/>
<path d="M10.1047 3.68153C10.3501 3.48133 10.7124 3.49589 10.9412 3.72466L14.2746 7.058L13.3908 7.94179L11.1243 5.67535V13.3332H9.87435V5.67535L7.60791 7.94179L6.72412 7.058L10.0575 3.72466L10.1047 3.68153Z" fill="#4E4E4E"/>
</svg>
