<svg width="56" height="56" viewBox="0 0 56 56" fill="none" xmlns="http://www.w3.org/2000/svg">
<path d="M3.68744 27.8884L8.27355 15.6351C8.66074 14.6006 9.81323 14.0758 10.8477 14.463L12.8 15.1937C13.8345 15.5809 14.3592 16.7334 13.972 17.7679L9.38591 30.0212C8.99873 31.0557 7.84623 31.5804 6.81175 31.1932L4.85949 30.4625C3.825 30.0754 3.30026 28.9229 3.68744 27.8884Z" fill="#FF9800" stroke="#FF9800" stroke-width="1.5"/>
<path d="M52.516 24.953L47.1435 13.0236C46.69 12.0164 45.5058 11.5676 44.4987 12.0212L42.598 12.8772C41.5909 13.3308 41.1421 14.5149 41.5957 15.5221L46.9682 27.4515C47.4217 28.4587 48.6059 28.9074 49.613 28.4539L51.5137 27.5979C52.5208 27.1443 52.9696 25.9602 52.516 24.953Z" fill="#FF9800" stroke="#FF9800" stroke-width="1.5"/>
<rect x="16.8672" y="30.3081" width="4.48333" height="8.32618" rx="2.24166" transform="rotate(36.1777 16.8672 30.3081)" fill="#FFE2BD"/>
<rect x="19.9688" y="32.5764" width="4.48333" height="8.32618" rx="2.24166" transform="rotate(36.1777 19.9688 32.5764)" fill="#FFE2BD"/>
<rect x="23.0703" y="34.8447" width="4.48333" height="8.32618" rx="2.24166" transform="rotate(36.1777 23.0703 34.8447)" fill="#FFE2BD"/>
<rect x="26.1738" y="37.1133" width="4.48333" height="8.32618" rx="2.24166" transform="rotate(36.1777 26.1738 37.1133)" fill="#FFE2BD"/>
<path d="M29.708 45.054L9.47907 30.7043C8.91569 30.3047 8.6999 29.5708 8.95729 28.9299L13.1704 18.4379C13.4581 17.7216 14.2442 17.3425 14.9838 17.5635L16.7254 18.084C16.8434 18.1193 16.9653 18.1398 17.0883 18.1451L23.9137 18.4407C24.1799 18.4522 24.4381 18.5348 24.6617 18.6798L38.1872 27.453L45.0879 32.7647C45.2164 32.8636 45.3303 32.9813 45.4091 33.123C45.8125 33.8482 46.2147 35.1972 45.2819 36.1264C44.25 37.1543 42.487 36.7688 41.7346 36.4476C41.9496 36.983 42.1216 38.3108 41.0896 39.3387C40.0576 40.3667 38.5097 39.7671 37.8647 39.3387C38.1872 39.8741 38.5097 41.2662 37.2197 42.5511C35.9298 43.8361 34.1024 42.6582 33.3499 41.9086C33.9949 42.8724 33.6724 44.1573 32.7049 45.121C31.9701 45.853 30.5959 45.4847 29.9067 45.1706C29.8365 45.1386 29.7709 45.0986 29.708 45.054Z" fill="#FFE2BD"/>
<path d="M12.6521 18.2292C13.0476 17.2442 14.129 16.7229 15.1459 17.0268L16.8871 17.5474C16.9608 17.5694 17.0371 17.582 17.1139 17.5853L23.9396 17.8813C24.3056 17.8972 24.6605 18.0109 24.9678 18.2102L38.4938 26.9828L38.5128 26.9952L38.5303 27.0091L45.4311 32.321C45.601 32.4518 45.774 32.6242 45.9 32.8504C46.1294 33.2628 46.3657 33.8629 46.4067 34.5129C46.4486 35.1763 46.286 35.9186 45.679 36.5232C45.0172 37.1825 44.1463 37.3621 43.3982 37.353C43.0677 37.349 42.7469 37.3065 42.4539 37.2466C42.4844 37.9948 42.2867 38.9379 41.4863 39.7352C40.813 40.4059 39.9756 40.5297 39.2638 40.4403C39.0717 40.4162 38.8852 40.3754 38.7075 40.3251C38.7485 41.1033 38.51 42.058 37.6166 42.9479C36.7784 43.7829 35.7569 43.7954 34.9143 43.5261C34.6792 43.451 34.4535 43.351 34.2399 43.2396C34.1731 44.0643 33.7407 44.8809 33.1016 45.5175C32.5679 46.0491 31.8428 46.1419 31.2474 46.0965C30.6432 46.0503 30.0624 45.8562 29.676 45.6801C29.5656 45.6298 29.4691 45.57 29.3858 45.5109L9.15652 31.1609C8.38199 30.6114 8.08517 29.6024 8.43902 28.7211L12.6521 18.2292ZM14.8251 18.1001C14.3629 17.962 13.8718 18.1988 13.6919 18.6462L9.47881 29.1382C9.31795 29.5388 9.45267 29.9975 9.80475 30.2473L30.0333 44.5973C30.0756 44.6273 30.1107 44.6471 30.1405 44.6607C30.4431 44.7986 30.8939 44.9458 31.3327 44.9794C31.7804 45.0136 32.1101 44.9245 32.3112 44.7242C33.1467 43.8919 33.3141 42.9354 32.9208 42.2793L31.0592 40.7334L31.4165 40.3025L31.7745 39.8716L33.709 41.4779L33.7287 41.494L33.7469 41.5122C34.0812 41.8451 34.6527 42.2667 35.2556 42.4594C35.8372 42.6451 36.3746 42.6044 36.8262 42.1546C37.8402 41.1445 37.6311 40.1076 37.4227 39.6936L34.5928 37.1882L35.3351 36.3497L38.2043 38.8894C38.4745 39.0627 38.9261 39.2691 39.4031 39.3291C39.8845 39.3895 40.3372 39.2991 40.6959 38.9419C41.4488 38.1919 41.3951 37.234 41.2544 36.7675L38.1373 33.9733L38.8854 33.1392L42.0361 35.964C42.3641 36.0918 42.8784 36.2266 43.412 36.233C43.9914 36.24 44.5185 36.0986 44.8886 35.7299C45.2143 35.4055 45.3157 35.0083 45.2889 34.5836C45.2612 34.1456 45.0955 33.7079 44.9214 33.3951C44.8897 33.3381 44.8348 33.2754 44.7479 33.2084L37.8645 27.9096L24.3582 19.1494C24.2185 19.0589 24.057 19.0071 23.8908 18.9999L17.0658 18.7046C16.8966 18.6973 16.7286 18.6692 16.5663 18.6207L14.8251 18.1001Z" fill="#FF9800"/>
<path d="M26.2005 14.3618C26.9307 13.8712 29.284 14.5236 30.4891 14.9511C30.5759 14.9818 30.6642 15.0056 30.7552 15.0199C32.2687 15.2567 38.0202 15.9519 38.5089 15.9519C38.8117 15.9519 39.659 15.5708 40.4931 15.1514C41.2932 14.7491 42.2806 15.091 42.6214 15.9193L46.9597 26.4625C47.1927 27.0289 47.0564 27.6801 46.6157 28.1053L44.1437 30.4909C43.6226 30.9937 42.8159 31.0502 42.2297 30.625L35.8597 26.0034C35.5355 25.7681 35.1297 25.6794 34.731 25.718C30.2616 26.151 27.2656 22.9938 26.2468 21.9817C26.0262 21.7624 25.7434 21.7789 25.4871 21.9551C18.2549 26.9259 16.7324 22.6191 16.7324 21.9944C16.7324 21.3583 19.8884 19.7682 21.1508 18.8141C22.4132 17.86 25.2537 14.9978 26.2005 14.3618Z" fill="#FFE2BD"/>
<path d="M27.0066 13.6265C27.3976 13.6252 27.8361 13.6805 28.2688 13.7614C29.1363 13.9236 30.0556 14.2028 30.6757 14.4227C30.7353 14.4439 30.7898 14.4584 30.8413 14.4665C31.5867 14.5832 33.3933 14.8149 35.0828 15.0185C35.9257 15.12 36.7356 15.2139 37.3644 15.2824C37.6789 15.3167 37.9467 15.345 38.1497 15.3641C38.2512 15.3736 38.3349 15.3805 38.3991 15.3852C38.4309 15.3876 38.4565 15.3893 38.4764 15.3903C38.4863 15.3909 38.4946 15.3909 38.5004 15.3911C38.506 15.3913 38.5084 15.3918 38.5084 15.3918C38.4937 15.3918 38.5346 15.3907 38.6616 15.351C38.7739 15.3158 38.9167 15.2623 39.0852 15.192C39.4216 15.0516 39.8291 14.8581 40.2409 14.651L40.3423 14.6028C41.4006 14.1381 42.6823 14.5969 43.1386 15.7061L47.4772 26.2491C47.7976 27.0278 47.6099 27.9233 47.004 28.508L44.5321 30.8939C43.8156 31.5852 42.7064 31.6623 41.9005 31.0776L35.5305 26.4562C35.3335 26.3132 35.0689 26.2478 34.7846 26.2753C30.0334 26.7356 26.8646 23.3861 25.8589 22.386C25.8465 22.3909 25.8277 22.3999 25.8034 22.4166C22.1389 24.9352 19.7358 25.2353 18.1822 24.5902C17.4113 24.2701 16.9113 23.7383 16.6065 23.2449C16.3155 22.774 16.172 22.2861 16.1719 21.9944C16.1719 21.7065 16.3355 21.4802 16.4402 21.3549C16.5633 21.2077 16.7238 21.0627 16.8938 20.9262C17.2362 20.6512 17.6939 20.349 18.1691 20.0497C19.1527 19.4302 20.206 18.825 20.8123 18.3668C21.4149 17.9114 22.4141 16.9831 23.4125 16.0575C24.377 15.1634 25.3671 14.2466 25.8873 13.897C26.2126 13.6784 26.6378 13.6277 27.0066 13.6265ZM27.0102 14.7465C26.695 14.7476 26.5519 14.8 26.5122 14.8267C26.0855 15.1134 25.1821 15.9452 24.1745 16.8793C23.2005 17.7823 22.148 18.7621 21.4882 19.2608C20.8321 19.7566 19.6762 20.4239 18.7663 20.9969C18.2947 21.2939 17.8839 21.5679 17.5952 21.7997C17.4552 21.9121 17.3618 22.0013 17.3065 22.0659C17.314 22.0991 17.3246 22.1441 17.3429 22.1993C17.3857 22.3281 17.4557 22.4886 17.5595 22.6565C17.7661 22.9909 18.0983 23.3423 18.6117 23.5556C19.6273 23.9773 21.6018 23.9453 25.1691 21.4935C25.3663 21.3579 25.612 21.2575 25.8851 21.2601C26.1703 21.2629 26.4338 21.3778 26.6413 21.5839C27.6813 22.6171 30.5006 25.565 34.6767 25.1604C35.1896 25.1108 35.737 25.2224 36.1882 25.5498L42.5582 30.1713C42.9246 30.437 43.4284 30.4017 43.7541 30.0874L46.2259 27.7023C46.5013 27.4366 46.5866 27.0296 46.441 26.6757L42.1032 16.1319C41.8927 15.6203 41.2679 15.388 40.7441 15.6514C40.3219 15.8637 39.8883 16.0703 39.5169 16.2252C39.3317 16.3025 39.1539 16.3706 38.9963 16.4199C38.8532 16.4647 38.6746 16.5118 38.5084 16.5118C38.3472 16.5118 37.8544 16.4626 37.2426 16.3959C36.6082 16.3267 35.7938 16.2323 34.9486 16.1304C33.262 15.9272 31.4358 15.6928 30.6677 15.5726C30.5374 15.5522 30.4155 15.5189 30.3017 15.4786C29.7167 15.2711 28.856 15.0106 28.0631 14.8624C27.6657 14.7881 27.3034 14.7455 27.0102 14.7465Z" fill="#FF9800"/>
<path d="M52.7241 25.415L46.9355 12.5616C46.5968 11.8096 45.7126 11.4745 44.9606 11.8132L42.136 13.0852C41.384 13.4239 41.0489 14.3081 41.3876 15.0601L47.1762 27.9135C47.5149 28.6655 48.399 29.0006 49.151 28.6619L51.9757 27.3898C52.7277 27.0512 53.0627 26.167 52.7241 25.415Z" fill="#FF9800"/>
<path d="M41.8991 14.8301C41.6875 14.3601 41.8969 13.8075 42.3669 13.5958L45.1912 12.3239C45.6612 12.1122 46.2138 12.3216 46.4255 12.7916L52.2142 25.6452C52.4257 26.1152 52.2163 26.6679 51.7464 26.8795L48.9221 28.1515C48.4522 28.3631 47.8996 28.1536 47.6878 27.6837L41.8991 14.8301ZM46.6666 28.1436C47.1323 29.1775 48.3481 29.6383 49.382 29.1727L52.2063 27.9007C53.2402 27.4351 53.7009 26.2193 53.2354 25.1853L47.4467 12.3317C46.981 11.2977 45.7653 10.837 44.7313 11.3026L41.907 12.5746C40.873 13.0402 40.4123 14.256 40.8779 15.29L46.6666 28.1436Z" fill="#FF9800"/>
<path d="M15.5439 32.1176C16.2748 31.1182 17.6773 30.9005 18.6766 31.6313C19.676 32.3621 19.8937 33.7647 19.1628 34.764L16.8944 37.8659C16.1636 38.8653 14.7611 39.083 13.7618 38.3521C12.7624 37.6213 12.5447 36.2188 13.2755 35.2195L15.5439 32.1176Z" fill="#FFE2BD"/>
<path d="M15.9913 37.205L18.2597 34.1032C18.6252 33.6031 18.5158 32.9012 18.0158 32.5355C17.5159 32.17 16.8143 32.2789 16.4486 32.7788L14.1803 35.8806C13.8147 36.3805 13.9232 37.0827 14.4231 37.4484L13.762 38.3524L13.6707 38.2821C12.7501 37.5344 12.5683 36.1875 13.2762 35.2194L15.5446 32.1176C16.2754 31.1185 17.6777 30.9008 18.677 31.6315C19.6762 32.3622 19.8944 33.765 19.1637 34.7643L16.8954 37.8661L16.8246 37.9579C16.0769 38.8784 14.73 39.0603 13.762 38.3524L14.4231 37.4484C14.9231 37.814 15.6257 37.705 15.9913 37.205Z" fill="#FF9800"/>
<path d="M18.6463 34.3861C19.3771 33.3868 20.7797 33.1691 21.779 33.8999C22.7783 34.6307 22.996 36.0333 22.2652 37.0326L19.9968 40.1345C19.266 41.1339 17.8634 41.3515 16.8641 40.6207C15.8648 39.8899 15.6471 38.4874 16.3779 37.4881L18.6463 34.3861Z" fill="#FFE2BD"/>
<path d="M19.0932 39.4733L21.3615 36.3715C21.7271 35.8715 21.6177 35.1695 21.1177 34.8039C20.6177 34.4384 19.9162 34.5473 19.5505 35.0471L17.2822 38.1489C16.9165 38.6489 17.0251 39.351 17.525 39.7167L16.8641 40.6207L16.7726 40.5504C15.852 39.8028 15.6699 38.4561 16.3779 37.4881L18.6463 34.3861C19.3771 33.3868 20.7797 33.1691 21.779 33.8999C22.7783 34.6307 22.996 36.0333 22.2652 37.0326L19.9968 40.1345L19.9265 40.2263C19.1788 41.1468 17.8322 41.3287 16.8641 40.6207L17.525 39.7167C18.025 40.0824 18.7275 39.9733 19.0932 39.4733Z" fill="#FF9800"/>
<path d="M21.7482 36.6546C22.479 35.6553 23.8815 35.4376 24.8809 36.1684C25.8802 36.8992 26.0979 38.3017 25.3671 39.3011L23.0987 42.403C22.3679 43.4023 20.9653 43.62 19.966 42.8892C18.9667 42.1584 18.749 40.7558 19.4798 39.7565L21.7482 36.6546Z" fill="#FFE2BD"/>
<path d="M22.1951 41.7417L24.4634 38.64C24.8289 38.1399 24.7196 37.4379 24.2196 37.0723C23.7196 36.7068 23.018 36.8157 22.6524 37.3155L20.384 40.4173C20.0184 40.9173 20.127 41.6194 20.6268 41.9851L19.966 42.8892L19.8744 42.8188C18.9539 42.0712 18.7718 40.7246 19.4798 39.7565L21.7482 36.6546C22.479 35.6553 23.8815 35.4376 24.8809 36.1684C25.8802 36.8992 26.0979 38.3017 25.3671 39.3011L23.0987 42.403L23.0283 42.4947C22.2807 43.4152 20.934 43.5971 19.966 42.8892L20.6268 41.9851C21.1269 42.3508 21.8294 42.2418 22.1951 41.7417Z" fill="#FF9800"/>
<path d="M24.8501 38.923C25.5809 37.9237 26.9834 37.706 27.9827 38.4368C28.9821 39.1676 29.1998 40.5702 28.469 41.5695L26.2006 44.6714C25.4697 45.6707 24.0672 45.8884 23.0679 45.1576C22.0685 44.4268 21.8508 43.0243 22.5817 42.0249L24.8501 38.923Z" fill="#FFE2BD"/>
<path d="M25.297 44.0102L27.5653 40.9084C27.9308 40.4084 27.8214 39.7064 27.3215 39.3407C26.8215 38.9753 26.1199 39.0841 25.7542 39.584L23.4859 42.6858C23.1203 43.1858 23.2288 43.8879 23.7287 44.2536L23.0679 45.1576L22.9763 45.0873C22.0557 44.3396 21.8737 42.993 22.5817 42.0249L24.8501 38.923C25.5809 37.9237 26.9834 37.706 27.9827 38.4368C28.9821 39.1676 29.1998 40.5702 28.469 41.5695L26.2006 44.6714L26.1302 44.7632C25.3826 45.6836 24.0359 45.8655 23.0679 45.1576L23.7287 44.2536C24.2288 44.6193 24.9313 44.5102 25.297 44.0102Z" fill="#FF9800"/>
<path d="M3.50984 28.3629L8.45115 15.1605C8.74025 14.3881 9.60078 13.9963 10.3732 14.2854L13.2745 15.3713C14.0469 15.6604 14.4387 16.5209 14.1496 17.2933L9.20831 30.4957C8.91921 31.2681 8.05868 31.6599 7.28627 31.3708L4.38497 30.2849C3.61255 29.9958 3.22074 29.1353 3.50984 28.3629Z" fill="#FF9800"/>
<path d="M13.6249 17.097C13.8056 16.6142 13.5607 16.0764 13.0779 15.8957L10.1769 14.8099C9.69419 14.6293 9.15636 14.8741 8.97567 15.3569L4.03428 28.5595C3.85374 29.0422 4.09854 29.5801 4.58124 29.7607L7.48221 30.8465C7.9649 31.0272 8.50272 30.7822 8.68348 30.2995L13.6249 17.097ZM9.73242 30.6921C9.33484 31.7541 8.15162 32.2929 7.08962 31.8954L4.18865 30.8097C3.12664 30.4122 2.58798 29.2289 2.98534 28.1669L7.92673 14.9643C8.32424 13.9022 9.50746 13.3635 10.5695 13.761L13.4705 14.8468C14.5326 15.2443 15.0713 16.4275 14.6738 17.4896L9.73242 30.6921Z" fill="#FF9800"/>
</svg>
